<svg width="717" height="717" viewBox="0 0 717 717" fill="none" xmlns="http://www.w3.org/2000/svg">
<path d="M358.891 716.697C424.111 716.697 486.66 690.357 532.777 643.471C578.895 596.585 604.803 532.993 604.803 466.687C604.803 437.819 597.262 410.117 588.409 384.35C533.751 439.252 492.241 466.687 463.814 466.687C594.803 233.343 522.833 133.339 326.103 0C342.497 166.674 234.427 242.477 190.425 284.579C154.533 318.903 129.61 363.398 118.89 412.295C108.17 461.192 112.146 512.236 130.303 558.808C148.459 605.38 179.959 645.333 220.718 673.486C261.477 701.638 309.615 716.693 358.891 716.697ZM382.171 124.505C488.438 216.176 488.962 287.412 406.86 433.652C381.909 478.087 413.484 533.356 463.814 533.356C486.372 533.356 509.193 526.689 533.292 513.522C526.149 540.956 512.839 566.329 494.41 587.644C475.982 608.959 452.938 625.634 427.093 636.356C401.248 647.078 373.308 651.553 345.473 649.431C317.637 647.308 290.667 638.645 266.684 624.123C242.702 609.602 222.362 589.619 207.268 565.747C192.173 541.876 182.735 514.767 179.697 486.557C176.659 458.347 180.104 429.805 189.76 403.178C199.417 376.551 215.021 352.567 235.345 333.114C239.476 329.181 260.428 310.28 261.346 309.446C275.248 296.779 286.691 285.545 298.003 273.245C338.333 229.31 367.318 180.574 382.138 124.505H382.171Z" fill="black"/>
</svg>
