<svg width="757" height="179" viewBox="0 0 757 179" fill="none" xmlns="http://www.w3.org/2000/svg">
<path d="M24 107L22.6 76.2L96 -9.53674e-06H125.2L64.2 64.8L49.8 80.6L24 107ZM0.800001 140V-9.53674e-06H26.8V140H0.800001ZM98.4 140L44.8 76.2L62 57.2L128.8 140H98.4ZM209.098 140V118.4L207.698 113.8V76C207.698 68.6667 205.498 63 201.098 59C196.698 54.8667 190.032 52.8 181.098 52.8C175.098 52.8 169.165 53.7333 163.298 55.6C157.565 57.4667 152.698 60.0667 148.698 63.4L138.898 45.2C144.632 40.8 151.432 37.5333 159.298 35.4C167.298 33.1333 175.565 32 184.098 32C199.565 32 211.498 35.7333 219.898 43.2C228.432 50.5333 232.698 61.9333 232.698 77.4V140H209.098ZM175.498 141.4C167.498 141.4 160.498 140.067 154.498 137.4C148.498 134.6 143.832 130.8 140.498 126C137.298 121.067 135.698 115.533 135.698 109.4C135.698 103.4 137.098 98 139.898 93.2C142.832 88.4 147.565 84.6 154.098 81.8C160.632 79 169.298 77.6 180.098 77.6H211.098V94.2H181.898C173.365 94.2 167.632 95.6 164.698 98.4C161.765 101.067 160.298 104.4 160.298 108.4C160.298 112.933 162.098 116.533 165.698 119.2C169.298 121.867 174.298 123.2 180.698 123.2C186.832 123.2 192.298 121.8 197.098 119C202.032 116.2 205.565 112.067 207.698 106.6L211.898 121.6C209.498 127.867 205.165 132.733 198.898 136.2C192.765 139.667 184.965 141.4 175.498 141.4ZM287.783 141.4C278.849 141.4 270.249 140.267 261.983 138C253.849 135.6 247.383 132.733 242.583 129.4L252.183 110.4C256.983 113.467 262.716 116 269.383 118C276.049 120 282.716 121 289.383 121C297.249 121 302.916 119.933 306.383 117.8C309.983 115.667 311.783 112.8 311.783 109.2C311.783 106.267 310.583 104.067 308.183 102.6C305.783 101 302.649 99.8 298.783 99C294.916 98.2 290.583 97.4667 285.783 96.8C281.116 96.1333 276.383 95.2667 271.583 94.2C266.916 93 262.649 91.3333 258.783 89.2C254.916 86.9333 251.783 83.9333 249.383 80.2C246.983 76.4667 245.783 71.5333 245.783 65.4C245.783 58.6 247.716 52.7333 251.583 47.8C255.449 42.7333 260.849 38.8667 267.783 36.2C274.849 33.4 283.183 32 292.783 32C299.983 32 307.249 32.8 314.583 34.4C321.916 36 327.983 38.2667 332.783 41.2L323.183 60.2C318.116 57.1333 312.983 55.0667 307.783 54C302.716 52.8 297.649 52.2 292.583 52.2C284.983 52.2 279.316 53.3333 275.583 55.6C271.983 57.8667 270.183 60.7333 270.183 64.2C270.183 67.4 271.383 69.8 273.783 71.4C276.183 73 279.316 74.2667 283.183 75.2C287.049 76.1333 291.316 76.9333 295.983 77.6C300.783 78.1333 305.516 79 310.183 80.2C314.849 81.4 319.116 83.0667 322.983 85.2C326.983 87.2 330.183 90.0667 332.583 93.8C334.983 97.5333 336.183 102.4 336.183 108.4C336.183 115.067 334.183 120.867 330.183 125.8C326.316 130.733 320.783 134.6 313.583 137.4C306.383 140.067 297.783 141.4 287.783 141.4ZM378.359 140L339.159 33.2H362.759L396.359 127.4H385.159L420.359 33.2H441.359L475.559 127.4H464.559L499.159 33.2H521.359L481.959 140H457.959L426.759 56.6H434.159L402.359 140H378.359ZM603.348 140V118.4L601.948 113.8V76C601.948 68.6667 599.748 63 595.348 59C590.948 54.8667 584.282 52.8 575.348 52.8C569.348 52.8 563.415 53.7333 557.548 55.6C551.815 57.4667 546.948 60.0667 542.948 63.4L533.148 45.2C538.882 40.8 545.682 37.5333 553.548 35.4C561.548 33.1333 569.815 32 578.348 32C593.815 32 605.748 35.7333 614.148 43.2C622.682 50.5333 626.948 61.9333 626.948 77.4V140H603.348ZM569.748 141.4C561.748 141.4 554.748 140.067 548.748 137.4C542.748 134.6 538.082 130.8 534.748 126C531.548 121.067 529.948 115.533 529.948 109.4C529.948 103.4 531.348 98 534.148 93.2C537.082 88.4 541.815 84.6 548.348 81.8C554.882 79 563.548 77.6 574.348 77.6H605.348V94.2H576.148C567.615 94.2 561.882 95.6 558.948 98.4C556.015 101.067 554.548 104.4 554.548 108.4C554.548 112.933 556.348 116.533 559.948 119.2C563.548 121.867 568.548 123.2 574.948 123.2C581.082 123.2 586.548 121.8 591.348 119C596.282 116.2 599.815 112.067 601.948 106.6L606.148 121.6C603.748 127.867 599.415 132.733 593.148 136.2C587.015 139.667 579.215 141.4 569.748 141.4ZM702.233 141.4C693.566 141.4 685.633 139.4 678.433 135.4C671.366 131.4 665.699 125.4 661.433 117.4C657.299 109.267 655.233 99 655.233 86.6C655.233 74.0667 657.233 63.8 661.233 55.8C665.366 47.8 670.966 41.8667 678.033 38C685.099 34 693.166 32 702.233 32C712.766 32 722.033 34.2667 730.033 38.8C738.166 43.3333 744.566 49.6667 749.233 57.8C754.033 65.9333 756.433 75.5333 756.433 86.6C756.433 97.6667 754.033 107.333 749.233 115.6C744.566 123.733 738.166 130.067 730.033 134.6C722.033 139.133 712.766 141.4 702.233 141.4ZM643.033 178.8V33.2H666.833V58.4L666.033 86.8L668.033 115.2V178.8H643.033ZM699.433 120C705.433 120 710.766 118.667 715.433 116C720.233 113.333 724.033 109.467 726.833 104.4C729.633 99.3333 731.033 93.4 731.033 86.6C731.033 79.6667 729.633 73.7333 726.833 68.8C724.033 63.7333 720.233 59.8667 715.433 57.2C710.766 54.5333 705.433 53.2 699.433 53.2C693.433 53.2 688.033 54.5333 683.233 57.2C678.433 59.8667 674.633 63.7333 671.833 68.8C669.033 73.7333 667.633 79.6667 667.633 86.6C667.633 93.4 669.033 99.3333 671.833 104.4C674.633 109.467 678.433 113.333 683.233 116C688.033 118.667 693.433 120 699.433 120Z" fill="url(#paint0_linear_6_4)"/>
<defs>
<linearGradient id="paint0_linear_6_4" x1="463" y1="211" x2="465" y2="-4.99998" gradientUnits="userSpaceOnUse">
<stop stop-color="#101010"/>
<stop offset="1"/>
</linearGradient>
</defs>
</svg>
