<?xml version="1.0" standalone="no"?>
<!DOCTYPE svg PUBLIC "-//W3C//DTD SVG 20010904//EN"
 "http://www.w3.org/TR/2001/REC-SVG-20010904/DTD/svg10.dtd">
<svg version="1.0" xmlns="http://www.w3.org/2000/svg"
 width="2151.000000pt" height="2151.000000pt" viewBox="0 0 2151.000000 2151.000000"
 preserveAspectRatio="xMidYMid meet">
<metadata>
Created by potrace 1.14, written by Peter Selinger 2001-2017
</metadata>
<g transform="translate(0.000000,2151.000000) scale(0.100000,-0.100000)"
fill="#000000" stroke="none">
<path d="M9785 21487 c2 -12 6 -62 10 -110 3 -48 8 -96 10 -105 1 -9 6 -82 10
-162 4 -80 9 -170 11 -200 6 -92 6 -709 0 -800 -3 -47 -8 -137 -11 -200 -4
-63 -8 -126 -10 -140 -2 -14 -6 -59 -10 -100 -3 -41 -8 -91 -10 -110 -2 -19
-7 -60 -10 -90 -4 -30 -8 -67 -11 -82 -2 -15 -6 -49 -9 -74 -3 -26 -7 -61 -10
-78 -2 -17 -14 -87 -25 -156 -11 -69 -36 -204 -55 -300 -20 -96 -38 -186 -41
-200 -46 -234 -195 -729 -317 -1051 -146 -388 -391 -900 -582 -1217 -6 -9 -24
-39 -40 -67 -117 -198 -477 -734 -514 -765 -3 -3 -26 -32 -50 -65 -44 -60
-190 -246 -201 -255 -3 -3 -50 -59 -105 -125 -54 -66 -104 -125 -110 -131 -5
-6 -35 -39 -65 -74 -59 -67 -58 -66 -230 -251 -197 -212 -583 -591 -824 -810
-33 -30 -89 -82 -125 -115 -37 -34 -88 -80 -115 -103 -27 -23 -54 -48 -61 -54
-6 -7 -49 -46 -96 -87 -458 -409 -746 -695 -985 -976 -164 -192 -333 -409
-435 -559 -30 -44 -56 -82 -59 -85 -15 -14 -194 -295 -270 -425 -199 -338
-394 -739 -525 -1080 -25 -66 -50 -129 -55 -140 -18 -40 -159 -465 -166 -500
-1 -5 -18 -68 -37 -140 -38 -138 -81 -322 -117 -495 -27 -129 -27 -128 -34
-176 -4 -22 -11 -64 -16 -94 -6 -30 -12 -76 -15 -101 -3 -26 -7 -55 -9 -65 -2
-11 -7 -44 -11 -74 -3 -30 -9 -67 -11 -83 -5 -31 -11 -89 -19 -192 -3 -38 -8
-86 -10 -105 -13 -107 -19 -283 -19 -595 -1 -344 3 -447 29 -735 8 -102 9
-108 31 -285 2 -22 7 -51 9 -65 5 -27 16 -102 20 -137 2 -12 6 -34 9 -50 3
-15 8 -44 11 -63 29 -191 127 -607 192 -820 15 -47 27 -92 29 -100 2 -20 101
-307 149 -435 187 -499 470 -1059 736 -1458 33 -48 59 -92 59 -96 0 -5 4 -11
8 -13 5 -1 31 -37 59 -78 87 -129 343 -467 408 -536 5 -6 26 -30 45 -54 19
-23 44 -52 55 -64 11 -12 43 -48 70 -80 28 -33 145 -154 260 -270 188 -189
255 -252 415 -392 25 -21 47 -41 50 -44 3 -3 28 -23 55 -45 28 -22 56 -45 64
-53 27 -26 339 -260 451 -339 681 -476 1518 -861 2320 -1067 144 -37 332 -81
390 -91 19 -3 67 -12 105 -20 39 -7 88 -17 110 -21 22 -4 42 -8 45 -9 3 0 31
-5 64 -9 32 -4 68 -9 80 -11 45 -8 264 -35 321 -40 33 -3 85 -8 115 -11 30 -3
96 -7 147 -10 50 -2 125 -6 165 -9 95 -5 479 -5 588 0 131 6 282 16 315 20 17
2 64 6 105 10 41 3 89 8 105 10 17 3 53 7 80 10 28 3 64 7 80 10 78 12 224 35
255 39 101 16 448 89 527 112 29 8 62 17 75 19 53 10 375 107 527 160 727 250
1382 597 2011 1064 41 30 77 58 80 61 3 3 34 27 70 55 74 57 75 58 190 155 75
63 179 155 259 228 120 109 371 366 491 502 41 47 77 87 80 90 6 6 98 116 120
143 8 11 20 24 26 31 5 6 36 45 68 86 273 352 532 744 682 1030 21 41 42 77
45 80 16 15 213 429 279 585 23 55 48 116 56 135 27 62 32 74 62 155 120 318
265 799 306 1015 2 14 11 54 20 90 8 36 17 79 20 95 3 17 8 41 11 55 3 14 8
36 10 50 2 14 11 62 19 107 8 45 20 119 26 163 6 44 13 94 16 112 4 32 8 62
19 163 3 28 8 66 10 85 2 19 7 69 11 110 3 41 8 89 10 105 6 57 18 430 17 580
-1 141 -9 344 -18 417 -2 18 -6 65 -10 103 -3 39 -8 81 -10 95 -2 14 -7 48
-10 75 -12 92 -25 177 -31 210 -3 11 -7 36 -10 55 -3 19 -12 69 -20 110 -8 41
-17 86 -20 100 -10 54 -28 133 -71 305 -24 99 -46 189 -49 200 -2 11 -26 94
-54 185 -28 91 -53 174 -55 185 -11 47 -129 395 -134 395 -3 0 -83 -75 -177
-168 -150 -147 -389 -375 -480 -459 -17 -15 -74 -68 -128 -117 -53 -49 -106
-98 -119 -108 -12 -11 -35 -32 -52 -46 -26 -23 -119 -105 -230 -201 -16 -14
-55 -46 -85 -70 -30 -25 -57 -47 -60 -51 -3 -3 -27 -24 -55 -45 -27 -22 -52
-43 -55 -46 -7 -7 -261 -205 -350 -271 -301 -226 -615 -424 -905 -573 -163
-84 -407 -189 -463 -200 -12 -2 -27 -7 -33 -11 -21 -12 -206 -57 -324 -79 -53
-9 -215 -17 -215 -10 0 4 31 62 68 129 271 479 599 1128 822 1621 39 88 82
183 95 211 78 171 266 634 352 869 196 533 342 1021 448 1495 2 8 8 35 14 60
5 25 12 59 15 75 3 17 14 73 25 125 11 52 22 113 25 135 4 23 8 50 10 60 2 11
7 40 11 65 4 25 8 52 10 60 6 38 18 118 20 145 2 17 6 48 9 70 9 67 25 205 32
290 4 44 8 94 10 110 7 71 17 371 17 505 1 147 -11 462 -17 497 -3 11 -7 60
-10 109 -4 49 -8 96 -11 104 -2 8 -6 42 -10 75 -6 58 -39 273 -50 325 -3 14
-7 39 -10 55 -19 131 -117 509 -189 727 -116 351 -308 787 -475 1081 -11 20
-29 52 -39 70 -85 147 -260 429 -294 472 -5 6 -36 51 -70 100 -34 50 -107 151
-162 225 -111 149 -108 145 -137 180 -12 14 -33 41 -48 60 -14 19 -28 37 -31
40 -3 3 -52 61 -109 130 -346 413 -769 846 -1267 1295 -77 70 -168 150 -324
285 -35 30 -57 48 -120 100 -30 25 -57 47 -60 50 -6 7 -308 254 -385 315 -27
22 -52 42 -55 45 -3 3 -23 19 -45 36 -22 16 -46 34 -55 41 -85 68 -242 189
-360 278 -80 61 -149 113 -155 118 -17 13 -122 91 -146 109 -27 19 -166 121
-249 182 -30 23 -66 49 -80 58 -32 21 -272 194 -285 205 -5 5 -35 25 -65 46
-30 20 -75 52 -100 70 -77 55 -592 410 -652 449 -52 34 -56 35 -53 15z m1770
-3791 c112 -98 134 -117 295 -265 138 -126 555 -543 650 -650 41 -46 86 -96
100 -111 14 -14 59 -66 100 -116 41 -49 77 -91 80 -94 15 -14 196 -247 256
-330 110 -150 248 -359 317 -479 116 -202 233 -439 307 -621 39 -96 106 -283
115 -320 2 -8 10 -35 18 -60 16 -47 72 -263 82 -315 3 -16 10 -57 16 -89 5
-33 12 -62 14 -65 2 -4 6 -33 10 -65 3 -33 8 -62 10 -65 4 -8 19 -155 31 -316
16 -227 0 -706 -30 -870 -2 -11 -7 -51 -12 -90 -4 -38 -8 -72 -9 -75 -2 -7
-16 -90 -21 -125 -3 -16 -7 -37 -9 -45 -2 -8 -7 -35 -10 -60 -4 -24 -8 -48
-11 -51 -2 -4 -6 -24 -10 -45 -10 -66 -83 -361 -125 -509 -142 -497 -392
-1151 -635 -1664 -30 -62 -54 -116 -54 -118 0 -12 -331 -672 -435 -868 -65
-121 -124 -233 -133 -250 -8 -16 -34 -64 -57 -105 -23 -41 -56 -100 -72 -130
-16 -30 -56 -102 -88 -160 -160 -286 -225 -466 -280 -765 -18 -97 -24 -330
-12 -470 37 -437 224 -861 528 -1199 123 -136 366 -323 524 -404 222 -113 439
-181 667 -209 125 -16 532 -8 673 12 81 12 340 57 346 60 3 2 20 7 38 10 42 7
284 73 319 86 15 6 34 12 42 14 19 4 218 76 290 105 115 45 271 117 435 199
93 47 173 87 176 89 10 4 -53 -213 -107 -376 -187 -555 -468 -1086 -823 -1557
-63 -82 -116 -152 -120 -155 -3 -3 -26 -30 -51 -60 -191 -236 -533 -571 -765
-750 -38 -30 -72 -57 -75 -61 -27 -33 -374 -269 -540 -368 -58 -34 -112 -66
-120 -71 -8 -5 -49 -27 -91 -49 -42 -22 -101 -53 -130 -68 -50 -26 -117 -58
-274 -128 -394 -177 -962 -337 -1375 -389 -25 -3 -54 -8 -65 -10 -11 -2 -54
-7 -95 -11 -41 -4 -88 -9 -105 -11 -182 -24 -846 -24 -970 0 -11 2 -56 7 -100
10 -44 4 -87 9 -95 11 -8 2 -37 7 -65 10 -27 4 -63 8 -80 10 -161 22 -552 112
-717 166 -51 16 -102 32 -113 34 -40 9 -294 104 -420 158 -404 172 -751 369
-1092 619 -51 38 -101 75 -110 83 -10 8 -34 27 -54 42 -245 192 -537 473 -755
728 -103 120 -274 341 -274 354 0 5 -4 11 -9 13 -9 3 -231 333 -231 343 0 4
-13 26 -30 50 -16 24 -30 46 -30 49 0 2 -22 43 -49 90 -108 186 -257 507 -337
726 -20 52 -39 104 -44 115 -11 24 -81 244 -109 340 -45 154 -116 470 -136
605 -2 14 -8 54 -13 90 -6 36 -13 88 -17 115 -3 28 -8 64 -10 80 -42 331 -46
813 -9 1185 9 89 31 270 38 305 2 11 7 40 11 65 9 52 11 66 26 140 6 30 12 67
15 82 9 67 97 399 147 558 148 469 395 979 680 1405 73 110 212 303 227 315 3
3 21 25 40 50 38 48 39 50 156 185 146 169 284 307 548 548 53 49 200 181 261
236 33 30 65 59 70 65 6 6 48 45 95 86 46 41 94 84 106 95 11 11 61 56 109
100 171 154 283 262 575 555 290 290 385 389 525 545 39 43 75 83 80 89 6 6
53 60 105 121 52 60 100 115 105 121 19 21 91 108 163 198 40 50 78 98 85 106
7 9 58 74 113 145 160 209 209 278 434 605 109 158 338 534 449 735 40 72 81
146 92 165 22 40 234 462 235 470 0 3 13 32 28 65 216 468 465 1160 550 1528
8 33 9 33 101 -47z"/>
</g>
</svg>
